<svg width="1200" height="512" viewBox="0 0 1200 512" fill="none" xmlns="http://www.w3.org/2000/svg">
<path d="M1477.64 819.447C1219.36 699.805 818.106 362.779 1279.4 -28.1797" stroke="#424242" stroke-width="0.459724"/>
<path d="M1453.07 814.157C1200.87 685.464 815.74 334.127 1292.79 -41.6767" stroke="#424242" stroke-width="0.459724"/>
<path d="M1428.5 808.869C1182.77 671.319 814.333 306.198 1306.42 -53.885" stroke="#424242" stroke-width="0.459724"/>
<path d="M1403.93 803.576C1165.04 657.376 813.852 279.022 1320.24 -64.7996" stroke="#424242" stroke-width="0.459724"/>
<path d="M1379.36 798.286C1147.67 643.657 814.261 252.637 1334.19 -74.4054" stroke="#424242" stroke-width="0.459724"/>
<path d="M1354.79 792.995C1130.65 630.168 815.521 227.071 1348.2 -82.6996" stroke="#424242" stroke-width="0.459724"/>
<path d="M1330.22 787.705C1113.96 616.925 817.587 202.357 1362.22 -89.6766" stroke="#424242" stroke-width="0.459724"/>
<path d="M1305.65 782.415C1097.59 603.939 820.425 178.525 1376.2 -95.3329" stroke="#424242" stroke-width="0.459724"/>
<path d="M1281.08 777.125C1081.55 591.223 823.994 155.601 1390.07 -99.6689" stroke="#424242" stroke-width="0.459724"/>
<path d="M1256.51 771.833C1065.79 578.784 828.246 133.609 1403.77 -102.688" stroke="#424242" stroke-width="0.459724"/>
<path d="M1231.94 766.544C1050.33 566.637 833.148 112.58 1417.25 -104.39" stroke="#424242" stroke-width="0.459724"/>
<path d="M1207.37 761.254C1035.15 554.79 838.65 92.5343 1430.46 -104.782" stroke="#424242" stroke-width="0.459724"/>
<path d="M1182.79 755.963C1020.21 543.253 844.7 73.4929 1443.32 -103.872" stroke="#424242" stroke-width="0.459724"/>
<path d="M1158.23 750.673C1005.53 532.037 851.265 55.4791 1455.8 -101.669" stroke="#424242" stroke-width="0.459724"/>
<path d="M1133.65 745.381C991.071 521.149 858.288 38.5095 1467.83 -98.1846" stroke="#424242" stroke-width="0.459724"/>
<path d="M1109.08 740.092C976.829 510.6 865.727 22.6055 1479.36 -93.4293" stroke="#424242" stroke-width="0.459724"/>
<path d="M1084.51 734.802C962.787 500.395 873.532 7.77972 1490.33 -87.4211" stroke="#424242" stroke-width="0.459724"/>
<path d="M1059.94 729.511C948.926 490.542 881.652 -5.95352 1500.68 -80.1772" stroke="#424242" stroke-width="0.459724"/>
<path d="M1035.37 724.221C935.234 481.049 890.043 -18.5796 1510.38 -71.7145" stroke="#424242" stroke-width="0.459724"/>
<path d="M1010.8 718.932C921.692 471.922 898.652 -30.088 1519.36 -62.0542" stroke="#424242" stroke-width="0.459724"/>
<path d="M986.232 713.64C908.286 463.165 907.431 -40.4717 1527.58 -51.2211" stroke="#424242" stroke-width="0.459724"/>
<path d="M961.66 708.351C894.994 454.787 916.325 -49.719 1534.98 -39.2356" stroke="#424242" stroke-width="0.459724"/>
<path d="M937.09 703.061C881.804 446.79 925.29 -57.8269 1541.52 -26.1263" stroke="#424242" stroke-width="0.459724"/>
<path d="M912.52 697.769C868.697 439.176 934.272 -64.7917 1547.15 -11.9216" stroke="#424242" stroke-width="0.459724"/>
<path d="M887.947 692.48C855.654 431.954 943.22 -70.6069 1551.83 3.35302" stroke="#424242" stroke-width="0.459724"/>
<path d="M863.379 687.19C842.664 425.123 952.088 -75.2756 1555.51 19.6631" stroke="#424242" stroke-width="0.459724"/>
<path d="M838.807 681.902C829.7 418.689 960.819 -78.7949 1558.14 36.9798" stroke="#424242" stroke-width="0.459724"/>
<path d="M814.24 676.612C816.757 412.647 969.372 -81.173 1559.7 55.2634" stroke="#424242" stroke-width="0.459724"/>
<path d="M789.668 671.322C803.803 407.004 977.686 -82.4103 1560.13 74.4826" stroke="#424242" stroke-width="0.459724"/>
<path d="M765.096 666.031C790.829 401.756 985.717 -82.5155 1559.41 94.5981" stroke="#424242" stroke-width="0.459724"/>
<path d="M740.523 660.742C777.815 396.908 993.417 -81.4932 1557.49 115.575" stroke="#424242" stroke-width="0.459724"/>
<path d="M715.955 655.451C764.75 392.455 1000.74 -79.3556 1554.34 137.37" stroke="#424242" stroke-width="0.459724"/>
<path d="M691.385 650.16C751.609 388.398 1007.63 -76.1133 1549.93 159.944" stroke="#424242" stroke-width="0.459724"/>
<path d="M666.812 644.87C738.376 384.735 1014.05 -71.7775 1544.23 183.257" stroke="#424242" stroke-width="0.459724"/>
<path d="M642.242 639.581C725.037 381.464 1019.94 -66.3629 1537.21 207.264" stroke="#424242" stroke-width="0.459724"/>
<path d="M617.674 634.29C711.575 378.58 1025.27 -59.8885 1528.84 231.92" stroke="#424242" stroke-width="0.459724"/>
<path d="M593.102 629C697.968 376.082 1029.98 -52.3684 1519.1 257.183" stroke="#424242" stroke-width="0.459724"/>
<path d="M568.531 623.709C684.206 373.962 1034.04 -43.8255 1507.97 283.003" stroke="#424242" stroke-width="0.459724"/>
<path d="M543.961 618.419C670.269 372.219 1037.4 -34.277 1495.43 309.337" stroke="#424242" stroke-width="0.459724"/>
<path d="M519.389 613.129C656.141 370.847 1040.01 -23.7465 1481.45 336.136" stroke="#424242" stroke-width="0.459724"/>
<path d="M494.818 607.838C641.809 369.838 1041.84 -12.2593 1466.03 363.351" stroke="#424242" stroke-width="0.459724"/>
<path d="M470.25 602.548C627.257 369.188 1042.85 0.161432 1449.15 390.934" stroke="#424242" stroke-width="0.459724"/>
<path d="M445.678 597.258C612.466 368.889 1042.99 13.4882 1430.8 418.836" stroke="#424242" stroke-width="0.459724"/>
<path d="M421.107 591.968C597.426 368.933 1042.24 27.6927 1410.96 447.005" stroke="#424242" stroke-width="0.459724"/>
<path d="M396.537 586.677C582.12 369.313 1040.56 42.7456 1389.64 475.392" stroke="#424242" stroke-width="0.459724"/>
<path d="M371.965 581.388C566.534 370.021 1037.9 58.6184 1366.82 503.949" stroke="#424242" stroke-width="0.459724"/>
<path d="M347.395 576.097C550.656 371.044 1034.24 75.2749 1342.5 532.619" stroke="#424242" stroke-width="0.459724"/>
<path d="M322.826 570.806C534.475 372.377 1029.56 92.6857 1316.69 561.356" stroke="#424242" stroke-width="0.459724"/>
<path d="M298.256 565.517C517.974 374.01 1023.81 110.817 1289.39 590.108" stroke="#424242" stroke-width="0.459724"/>
<path d="M273.684 560.226C501.14 375.928 1016.96 129.63 1260.59 618.821" stroke="#424242" stroke-width="0.459724"/>
<path d="M249.109 554.937C483.962 378.126 1008.99 149.093 1230.3 647.448" stroke="#424242" stroke-width="0.459724"/>
<path d="M224.545 549.646C466.441 380.588 999.897 169.164 1198.55 675.934" stroke="#424242" stroke-width="0.459724"/>
<path d="M199.973 544.354C448.548 383.304 989.624 189.808 1165.33 704.23" stroke="#424242" stroke-width="0.459724"/>
<path d="M175.4 539.065C430.281 386.264 978.164 210.987 1130.65 732.288" stroke="#424242" stroke-width="0.459724"/>
<path d="M150.832 533.775C411.635 389.453 965.501 232.658 1094.54 760.053" stroke="#424242" stroke-width="0.459724"/>
<path d="M126.266 528.51C392.598 392.885 951.614 254.808 1057.01 787.505" stroke="#424242" stroke-width="0.459724"/>
<path d="M101.695 523.221C373.157 396.495 936.481 277.344 1018.08 814.541" stroke="#424242" stroke-width="0.459724"/>
<path d="M77.123 517.93C353.306 400.295 920.092 300.249 977.772 841.138" stroke="#424242" stroke-width="0.459724"/>
<path d="M52.5547 512.64C333.043 404.273 902.438 323.482 936.111 867.25" stroke="#424242" stroke-width="0.459724"/>
<path d="M27.9824 507.35C312.354 408.414 883.502 347 893.116 892.828" stroke="#424242" stroke-width="0.459724"/>
<path d="M3.41211 502.059C291.24 412.703 863.281 370.758 848.823 917.826" stroke="#424242" stroke-width="0.459724"/>
<path d="M-21.1602 496.769C269.691 417.127 841.765 394.715 803.256 942.2" stroke="#424242" stroke-width="0.459724"/>
<path d="M-45.7285 491.479C247.708 421.671 818.955 418.825 756.452 965.903" stroke="#424242" stroke-width="0.459724"/>
<path d="M-70.3008 486.188C225.28 426.319 794.84 443.044 708.439 988.893" stroke="#424242" stroke-width="0.459724"/>
<path d="M-94.8711 480.898C202.409 431.058 769.426 467.327 659.256 1011.13" stroke="#424242" stroke-width="0.459724"/>
<path d="M-119.441 475.608C179.091 435.872 742.712 491.632 608.938 1032.56" stroke="#424242" stroke-width="0.459724"/>
<path d="M-144.014 470.317C155.322 440.745 714.699 515.912 557.523 1053.16" stroke="#424242" stroke-width="0.459724"/>
<path d="M-168.584 465.028C131.105 445.663 685.397 540.124 505.055 1072.88" stroke="#424242" stroke-width="0.459724"/>
<path d="M-193.152 459.737C106.439 450.61 654.812 564.222 451.576 1091.69" stroke="#424242" stroke-width="0.459724"/>
<path d="M-217.725 454.446C81.3185 455.57 622.948 588.163 397.123 1109.55" stroke="#424242" stroke-width="0.459724"/>
<path d="M-242.295 449.157C55.7502 460.53 589.822 611.905 341.747 1126.42" stroke="#424242" stroke-width="0.459724"/>
<path d="M-266.865 443.867C29.7336 465.472 555.444 635.4 285.493 1142.27" stroke="#424242" stroke-width="0.459724"/>
<path d="M-291.436 438.575C3.27087 470.38 519.829 658.606 228.408 1157.07" stroke="#424242" stroke-width="0.459724"/>
<path d="M-316.006 433.287C-23.6352 475.243 482.993 681.484 170.541 1170.79" stroke="#424242" stroke-width="0.459724"/>
<path d="M-340.578 427.997C-50.9828 480.042 444.954 703.988 111.94 1183.41" stroke="#424242" stroke-width="0.459724"/>
<path d="M-365.145 422.704C-78.7602 484.76 405.74 726.074 52.6645 1194.88" stroke="#424242" stroke-width="0.459724"/>
<path d="M-389.719 417.416C-106.976 489.389 365.358 747.707 -7.2472 1205.2" stroke="#424242" stroke-width="0.459724"/>
<path d="M-414.289 412.125C-135.614 493.907 323.844 768.842 -67.7303 1214.33" stroke="#424242" stroke-width="0.459724"/>
<path d="M-438.859 406.834C-164.67 498.302 281.22 789.44 -128.735 1222.25" stroke="#424242" stroke-width="0.459724"/>
<path d="M-463.43 401.544C-194.139 502.561 237.513 809.464 -190.205 1228.95" stroke="#424242" stroke-width="0.459724"/>
<path d="M-488 396.253C-224.013 506.666 192.752 828.872 -252.087 1234.4" stroke="#424242" stroke-width="0.459724"/>
</svg>
